<svg width="425" height="222" viewBox="0 0 425 222" fill="none" xmlns="http://www.w3.org/2000/svg">
<path d="M109.611 221.402C99.5457 222.331 78.0214 223.26 71.8274 215.208C66.5625 208.24 66.2528 198.639 64.7043 190.122C59.1296 159.152 53.555 109.135 82.5121 97.2119C127.574 78.6298 183.939 122.607 144.297 150.945C150.027 152.803 155.602 155.9 160.402 159.617C170.158 167.204 169.074 183.928 162.88 194.613C152.969 211.801 129.432 219.544 109.611 221.402ZM95.3647 134.841C91.6483 140.725 98.152 144.596 104.965 143.357C113.327 141.809 123.857 134.221 116.424 130.04C110.075 126.634 99.2359 128.801 95.3647 134.841ZM96.1389 184.238C99.3908 187.49 109.456 187.025 113.947 185.786C123.702 182.999 129.122 174.018 119.212 172.314C107.908 170.456 87.9319 176.186 96.1389 184.238Z" fill="#0F0F10"/>
<path d="M268.597 209.186C258.996 220.954 241.808 217.393 232.362 205.469C181.261 236.13 156.175 174.344 183.119 135.632C204.334 105.281 253.886 100.171 271.384 132.69C278.817 146.626 270.92 163.969 272.623 179.455C273.552 189.365 275.101 201.288 268.597 209.186ZM220.438 177.287C235.304 185.029 247.692 154.369 237.782 148.33C214.709 133.928 202.166 167.996 220.438 177.287Z" fill="#0F0F10"/>
<path d="M356.81 217.067C328.472 226.977 294.096 215.518 283.566 187.181C275.668 166.276 285.269 133.448 303.541 120.595C331.105 101.239 375.237 107.278 375.237 140.88C375.082 166.276 348.293 174.328 323.362 169.218C322.743 180.987 337.299 183.155 348.758 176.651C356.036 172.625 367.804 169.992 373.379 176.031C385.767 189.503 374.153 211.028 356.81 217.067ZM322.278 150.946C328.318 160.701 354.952 144.287 344.577 134.841C335.441 126.634 317.788 139.022 322.278 150.946Z" fill="#0F0F10"/>
<path d="M70.8494 90.6867C47.7527 121.811 -18.0868 108.979 4.73649 77.5319C8.60013 72.1263 26.8428 75.6895 33.4407 76.5815C44.4849 78.1412 47.2907 67.6617 32.6069 69.3561C6.15284 72.4087 -5.12906 54.4619 10.7692 30.5447C19.9353 16.8514 42.8618 9.83656 57.9938 16.1205C69.5177 20.8133 70.7773 36.8462 59.4104 41.7006C55.233 43.3635 50.4191 41.5572 46.013 41.239C34.5699 40.3158 29.5319 46.8016 37.7837 49.7463C45.4708 50.8668 53.9421 47.5275 61.0286 50.6067C77.0571 57.4958 81.2839 76.729 70.8494 90.6867Z" fill="#0F0F10"/>
<path d="M357.897 86.0809C362.739 102.613 339.485 105.027 332.22 95.9032C327.571 91.9859 325.024 82.9977 323.216 77.688C318.846 64.6875 315.126 49.2436 320.399 36.5433C328.365 17.7852 359.455 11.4164 374.589 25.3129C387.991 37.5178 386.05 56.6531 375.464 67.9338C376.53 68.2372 377.694 68.5222 378.876 68.9047C380.814 69.5483 398.795 70.8537 402.36 72.2013C404.963 73.1589 406.895 74.5326 408.074 76.092C409.941 78.4224 410.698 81.0891 410.138 83.5161C409.267 89.0612 399.092 95.5512 389.746 96.3809C381.793 97.087 378.094 94.7853 371.52 91.9219C363.262 88.3758 358.692 82.8029 354.498 80.3647C355.84 82.1298 357.038 83.3169 357.897 86.0809ZM342.038 49.6165C342.499 59.0151 352.153 58.3041 356.329 49.9482C359.392 43.7194 352.934 36.7639 346.962 40.4131C343.791 42.3231 341.943 45.9008 342.038 49.6165Z" fill="#0F0F10"/>
<path d="M286.637 115.883C266.533 119.188 244.895 107.501 241.176 87.324C238.346 72.4245 248.61 51.6044 262.33 45.1534C283.023 35.4433 311.817 44.6505 307.881 67.113C304.802 84.0711 285.951 86.3154 269.884 79.9787C268.091 87.7732 277.567 90.9276 285.989 87.9225C291.326 86.0838 299.501 85.7028 302.52 90.3929C309.223 100.85 298.938 113.878 286.637 115.883ZM271.3 67.6371C274.194 74.866 293.921 67.0138 288.092 59.484C282.947 52.9275 269.695 59.1405 271.3 67.6371Z" fill="#0F0F10"/>
<path d="M155.512 71.7607C153.41 89.8363 134.389 96.2469 126.297 79.8527C115.893 89.3109 99.2882 90.2567 89.83 79.8527C78.1649 67.2417 82.6838 43.5962 92.5623 29.6191C100.129 12.4892 128.398 17.3234 120.201 37.7111C117.994 43.0708 111.689 51.4781 115.052 56.1021C119.466 62.1974 128.714 56.3122 129.554 48.7457C130.5 40.8639 127.242 31.9311 131.026 24.89C135.755 16.0623 150.047 17.2183 153.515 26.7816C156.353 34.3482 156.458 63.6686 155.512 71.7607Z" fill="#0F0F10"/>
<path d="M190.759 105.111C190.333 129.512 167.385 129.276 161.575 116.147C157.773 107.554 162.075 76.3711 162.903 69.7799C164.984 53.6718 168.44 38.9321 179.372 29.2946C195.687 15.1422 228.253 23.5493 236.194 43.8245C247.052 71.3319 214.558 109.375 190.319 83.7087C190.921 90.5431 191.307 97.9217 190.759 105.111ZM193.89 51.8136C189.954 60.9767 199.477 64.7933 207.342 58.7811C213.158 54.2765 210.246 44.6479 202.862 45.3428C198.953 45.6852 195.528 48.2314 193.89 51.8136Z" fill="#0F0F10"/>
</svg>
